# File generated by ImageToStl.com - Free Image and 3D model conversion tools

mtllib chicken.mtl

o obj1
v -2.9999997 -2.49999977 -5.99999993
v -2.9999997 3.50000023 -5.99999895
v 3.0000003 3.50000023 -5.99999895
v 3.0000003 -2.49999977 -5.99999993
v -2.9999997 -2.50000107 2.00000007
v 3.0000003 -2.50000107 2.00000007
v 3.0000003 3.49999893 2.00000105
v -2.9999997 3.49999893 2.00000105
v -2.9999997 -2.49999977 -5.99999993
v 3.0000003 -2.49999977 -5.99999993
v 3.0000003 -2.50000107 2.00000007
v -2.9999997 -2.50000107 2.00000007
v 3.0000003 -2.49999977 -5.99999993
v 3.0000003 3.50000023 -5.99999895
v 3.0000003 3.49999893 2.00000105
v 3.0000003 -2.50000107 2.00000007
v 3.0000003 3.50000023 -5.99999895
v -2.9999997 3.50000023 -5.99999895
v -2.9999997 3.49999893 2.00000105
v 3.00000006 -0.49999993 -5.00000008
v 3.00000006 3.50000007 -4.99999943
v 4.00000006 3.50000007 -4.99999943
v 4.00000006 -0.49999993 -5.00000008
v 3.00000006 -0.50000091 0.99999992
v 4.00000006 -0.50000091 0.99999992
v 4.00000006 3.49999909 1.00000057
v 3.00000006 3.49999909 1.00000057
v 3.00000006 -0.49999993 -5.00000008
v 4.00000006 -0.49999993 -5.00000008
v 4.00000006 -0.50000091 0.99999992
v 3.00000006 -0.50000091 0.99999992
v 4.00000006 3.50000007 -4.99999943
v 3.00000006 3.50000007 -4.99999943
v 3.00000006 3.49999909 1.00000057
v 4.00000006 3.49999909 1.00000057
v 3.00000006 -0.50000091 0.99999992
v 3.00000006 3.49999909 1.00000057
v -1.00000006 1.49999987 4.99999977
v 1 1.49999987 4.99999977
v 1 3.49999987 5.00000009
v -1.00000006 3.49999987 5.00000009
v -1.00000006 1.50000003 3.99999977
v 1 1.50000003 3.99999977
v 1 1.49999987 4.99999977
v -1.00000006 1.49999987 4.99999977
v 1 1.50000003 3.99999977
v 1 3.50000003 4.00000009
v -1.00000006 3.50000003 4.00000009
v -1.00000006 1.50000003 3.99999977
v -1.99999994 3.50000003 4.00000009
v -1.99999994 5.50000003 4.00000042
v 1.99999994 5.50000003 4.00000042
v 1.99999994 3.50000003 4.00000009
v -1.99999994 3.49999971 6.00000009
v 1.99999994 3.49999971 6.00000009
v 1.99999994 5.49999971 6.00000042
v -1.99999994 5.49999971 6.00000042
v -1.99999994 3.50000003 4.00000009
v 1.99999994 3.50000003 4.00000009
v 1.99999994 3.49999971 6.00000009
v -1.99999994 3.49999971 6.00000009
v 1.99999994 5.50000003 4.00000042
v -1.99999994 5.50000003 4.00000042
v -1.99999994 5.50000003 4.00000042
v -1.99999994 3.50000003 4.00000009
v -1.99999994 1.50000005 0.99999977
v -1.99999994 7.50000005 1.00000075
v 1.99999994 7.50000005 1.00000075
v 1.99999994 1.50000005 0.99999977
v -1.99999994 1.49999956 3.99999977
v 1.99999994 1.49999956 3.99999977
v 1.99999994 7.49999956 4.00000075
v -1.99999994 7.49999956 4.00000075
v -1.99999994 1.50000005 0.99999977
v 1.99999994 1.50000005 0.99999977
v 1.99999994 1.49999956 3.99999977
v -1.99999994 1.49999956 3.99999977
v 1.99999994 1.50000005 0.99999977
v 1.99999994 7.50000005 1.00000075
v 1.99999994 7.49999956 4.00000075
v 1.99999994 1.49999956 3.99999977
v 1.99999994 7.50000005 1.00000075
v -1.99999994 7.50000005 1.00000075
v 1.99999994 7.49999956 4.00000075
v -1.99999994 7.50000005 1.00000075
v -1.99999994 1.50000005 0.99999977
v -2.99999994 -0.49999993 -5.00000008
v -3.9999997 -0.49999993 -5.00000008
v -3.9999997 3.50000007 -4.99999943
v -2.99999994 3.50000007 -4.99999943
v -2.99999994 -0.50000091 0.99999992
v -2.99999994 3.49999909 1.00000057
v -3.9999997 3.49999909 1.00000057
v -3.9999997 -0.50000091 0.99999992
v -2.99999994 -0.49999993 -5.00000008
v -2.99999994 -0.50000091 0.99999992
v -3.9999997 -0.50000091 0.99999992
v -3.9999997 -0.49999993 -5.00000008
v -3.9999997 3.50000007 -4.99999943
v -3.9999997 3.49999909 1.00000057
v -2.99999994 3.49999909 1.00000057
v -2.99999994 3.50000007 -4.99999943
v -2.99999994 3.49999909 1.00000057
v -2.99999994 -0.50000091 0.99999992
v -2.00000018 -2.50000042 -1.99999945
v -2.00000018 -7.50000042 -2.00000027
v -1.0000003 -7.50000042 -2.00000027
v -1.0000003 -2.50000042 -1.99999945
v -2.00000018 -7.50000042 -2.00000027
v -2.00000018 -7.50000027 2.1E-07
v -1.0000003 -7.50000027 2.1E-07
v -1.0000003 -7.50000042 -2.00000027
v -3.00000018 -7.50000042 -2.00000027
v -3.00000018 -7.49999979 2.1E-07
v -6E-08 -7.49999979 2.1E-07
v -6E-08 -7.50000042 -2.00000027
v -2.00000018 -7.49999995 1.00000021
v -1.0000003 -7.49999995 1.00000021
v 1.00000018 -7.50000042 -2.00000027
v 2.00000018 -7.50000042 -2.00000027
v 2.00000018 -2.50000042 -1.99999945
v 1.00000018 -2.50000042 -1.99999945
v 2.00000018 -7.50000042 -2.00000027
v 1.00000018 -7.50000042 -2.00000027
v 1.00000018 -7.50000027 2.1E-07
v 2.00000018 -7.50000027 2.1E-07
v 2.99999982 -7.49999979 2.1E-07
v 2.99999982 -7.50000042 -2.00000027
v 1.00000018 -7.49999995 1.00000021
v 2.00000018 -7.49999995 1.00000021
vn 0 0 -1
vn 0 0 1
vn 0 -1 0
vn 1 0 0
vn 0 1 0
vn -1 0 0
vn 0 1 -0
vn 0 1 -0
vn -0 1 -0
vn 0 1 -0
vn -0 1 -0
vn 0 1 -0
vt 0.28095 0.23433
vt 0.1875 0.23433
vt 0.1875 0.14066
vt 0.28095 0.14066
vt 0.09394 0.23433
vt 0.09394 0.14066
vt 0.28095 0.35933
vt 0.375 0.35933
vt 0.375 0.23433
vt 0 0.35933
vt 0.09393 0.35933
vt 0.09393 0.23433
vt 0 0.23433
vt 0.09393 0.35933
vt 0.1875 0.35933
vt 0.5 0.35912
vt 0.5 0.3
vt 0.46841 0.3
vt 0.46841 0.35912
vt 0.35965 0.35912
vt 0.37527 0.35912
vt 0.37527 0.3
vt 0.35965 0.3
vt 0.5 0.29686
vt 0.48752 0.29686
vt 0.4875 0.20324
vt 0.5 0.20324
vt 0.46841 0.29686
vt 0.46841 0.20324
vt 0.59355 0.35912
vt 0.59355 0.3
vt 0.25 0.125
vt 0.3125 0.125
vt 0.3125 0.09373
vt 0.25 0.09373
vt 0.25 0.0625
vt 0.3125 0.0625
vt 0.34351 0.125
vt 0.34351 0.09373
vt 0.21868 0.09373
vt 0.21868 0.125
vt 0.4 0.0625
vt 0.4 0.03124
vt 0.34378 0.03124
vt 0.34378 0.0625
vt 0.3125 0.03124
vt 0.25 0.03124
vt 0.3125 0
vt 0.375 0
vt 0.375 0.03124
vt 0.25 0
vt 0.21884 0.03124
vt 0.21884 0.0625
vt 0.21856 0.14056
vt 0.21856 0.04713
vt 0.15644 0.04713
vt 0.15644 0.14056
vt 0.04693 0.14056
vt 0.10943 0.14056
vt 0.10943 0.04713
vt 0.04693 0.04713
vt 0.69155 1.43736
vt 0.97612 1.43736
vt 0.97612 1.22394
vt 0.69155 1.22394
vt 0.15644 0.14056
vt 0.15644 0.04713
vt 0.10943 0.04713
vt 0.10943 0.14056
vt 0.1095 0
vt 0.04685 0
vt 0.10954 0.04713
vt 0 0.04713
vt 0 0.14056
vt 0.575 0.05
vt 0.575 0.125
vt 0.5625 0.125
vt 0.5625 0.05
vt 0.53122 0.04683
vt 0.53122 0.01561
vt 0.51561 0.01561
vt 0.51561 0.04683
vt 0.54683 0.04683
vt 0.54683 0.01561
vt 0.5 0.01561
vt 0.5 0.04683
vt 0.53122 0
vt 0.51561 0
usemtl mat0
f 1/1/1 2/2/1 3/3/1
f 1/1/1 3/3/1 4/4/1
f 5/5/2 6/2/2 7/3/2
f 5/5/2 7/3/2 8/6/2
f 9/7/3 10/8/3 11/9/3
f 9/7/3 11/9/3 12/1/3
f 13/10/4 14/11/4 15/12/4
f 13/10/4 15/12/4 16/13/4
f 17/14/5 18/15/5 19/2/5
f 17/14/5 19/2/5 15/12/5
f 18/15/6 9/7/6 12/1/6
f 18/15/6 12/1/6 19/2/6
f 20/16/1 21/17/1 22/18/1
f 20/16/1 22/18/1 23/19/1
f 24/20/2 25/21/2 26/22/2
f 24/20/2 26/22/2 27/23/2
f 28/24/3 29/25/3 30/26/3
f 28/24/3 30/26/3 31/27/3
f 23/19/4 22/18/4 26/22/4
f 23/19/4 26/22/4 25/21/4
f 32/28/5 33/25/5 34/26/5
f 32/28/5 34/26/5 35/29/5
f 21/17/6 20/16/6 36/30/6
f 21/17/6 36/30/6 37/31/6
f 38/32/2 39/33/2 40/34/2
f 38/32/2 40/34/2 41/35/2
f 42/36/3 43/37/3 44/34/3
f 42/36/3 44/34/3 45/35/3
f 46/38/4 47/39/4 40/34/4
f 46/38/4 40/34/4 39/33/4
f 48/40/6 49/41/6 38/32/6
f 48/40/6 38/32/6 41/35/6
f 50/42/1 51/43/1 52/44/1
f 50/42/1 52/44/1 53/45/1
f 54/36/2 55/37/2 56/46/2
f 54/36/2 56/46/2 57/47/2
f 58/48/3 59/49/3 60/50/3
f 58/48/3 60/50/3 61/46/3
f 53/45/4 52/44/4 56/46/4
f 53/45/4 56/46/4 55/37/4
f 62/48/5 63/51/5 57/47/5
f 62/48/5 57/47/5 56/46/5
f 64/52/6 65/53/6 54/36/6
f 64/52/6 54/36/6 57/47/6
f 66/54/1 67/55/1 68/56/1
f 66/54/1 68/56/1 69/57/1
f 70/58/2 71/59/2 72/60/2
f 70/58/2 72/60/2 73/61/2
f 74/62/3 75/63/3 76/64/3
f 74/62/3 76/64/3 77/65/3
f 78/66/4 79/67/4 80/68/4
f 78/66/4 80/68/4 81/69/4
f 82/70/5 83/71/5 73/61/5
f 82/70/5 73/61/5 84/72/5
f 85/73/6 86/74/6 70/58/6
f 85/73/6 70/58/6 73/61/6
f 87/16/1 88/19/1 89/18/1
f 87/16/1 89/18/1 90/17/1
f 91/20/2 92/23/2 93/22/2
f 91/20/2 93/22/2 94/21/2
f 95/24/3 96/27/3 97/26/3
f 95/24/3 97/26/3 98/25/3
f 88/19/6 94/21/6 93/22/6
f 88/19/6 93/22/6 89/18/6
f 99/28/5 100/29/5 101/26/5
f 99/28/5 101/26/5 102/25/5
f 90/17/4 103/31/4 104/30/4
f 90/17/4 104/30/4 87/16/4
f 105/75/2 106/76/2 107/77/2
f 105/75/2 107/77/2 108/78/2
f 109/79/7 110/80/7 111/81/7
f 109/79/7 111/81/7 112/82/7
f 109/79/8 113/83/8 114/84/8
f 109/79/8 114/84/8 110/80/8
f 111/81/9 115/85/9 116/86/9
f 111/81/9 116/86/9 112/82/9
f 110/80/10 117/87/10 118/88/10
f 110/80/10 118/88/10 111/81/10
f 119/77/2 120/76/2 121/75/2
f 119/77/2 121/75/2 122/78/2
f 123/79/7 124/82/7 125/81/7
f 123/79/7 125/81/7 126/80/7
f 123/79/11 126/80/11 127/84/11
f 123/79/11 127/84/11 128/83/11
f 125/81/12 124/82/12 116/86/12
f 125/81/12 116/86/12 115/85/12
f 126/80/10 125/81/10 129/88/10
f 126/80/10 129/88/10 130/87/10
# Vertices: 130, normals: 12, texture coordinates: 88, faces: 88

