# File generated by ImageToStl.com - Free Image and 3D model conversion tools

mtllib minecraft_diamond.mtl

o obj1
v -0.97420585 2.957412 4.05651808
v -0.97313732 2.95741129 4.79393101
v -0.9731369 3.69482565 4.79393053
v -0.97420597 3.69482589 4.05651712
v -0.97313732 4.43224144 4.79393005
v -0.97420585 4.43224239 4.05651808
v -0.97313732 5.16965818 4.79393005
v -0.97420585 5.16965771 4.05651808
v -0.97313732 5.90707254 4.79393196
v -0.97420561 5.90707254 4.05651855
v -0.98103696 8.11970615 -1.84393334
v -0.98168564 8.11931324 -1.10538018
v -0.98050272 8.857131 -1.10614586
v -0.98103708 8.857131 -1.84356117
v -0.98061687 8.11931419 -0.36796629
v -0.98061746 8.85694885 -0.36854845
v -0.97954839 8.11931419 0.36944804
v -0.97954863 8.856987 0.36926699
v -0.97848022 8.1189909 1.10653877
v -0.97848022 8.85662651 1.10668075
v -0.97836488 8.11848545 1.84409368
v -0.97836584 8.85658836 1.84377015
v -0.97783148 8.11931515 2.58132935
v -0.97783148 8.85673046 2.58132863
v -0.98100328 7.3830452 -2.57887721
v -0.98275411 7.38190174 -1.84279442
v -0.98157126 8.11970615 -2.5813458
v -0.9816854 7.38190079 -1.10538006
v -0.98061687 7.38190222 -0.36796606
v -0.97954839 7.38190222 0.36944813
v -0.97847998 7.38190222 1.10686231
v -0.97741127 7.38190222 1.84427655
v -0.97634262 7.38121653 2.58100533
v -0.97729695 7.38139772 3.31823826
v -0.97729695 8.11881065 3.31823921
v -0.98156869 6.64524984 -2.57944679
v -0.98275399 6.64448643 -1.84279537
v -0.9816854 6.64448547 -1.10538077
v -0.98061687 6.64448643 -0.36796641
v -0.97954839 6.6444869 0.36944792
v -0.97847986 6.64448738 1.10686195
v -0.97741127 6.64448595 1.84427619
v -0.97634262 6.6444869 2.58169127
v -0.97527426 6.6444869 3.31910586
v -0.97420371 6.64380121 4.05720377
v -0.97420388 7.38121653 4.05720377
v -0.98489136 5.90764284 -3.31762338
v -0.98382264 5.90707159 -2.58020806
v -0.98488909 6.64524984 -3.31685805
v -0.98275304 5.90707064 -1.84279549
v -0.98168266 5.90707064 -1.10538101
v -0.98061603 5.90707159 -0.36796653
v -0.97954363 5.90707064 0.36944753
v -0.97847712 5.90707064 1.10686171
v -0.97742295 5.90707159 1.84427595
v -0.97634083 5.90707159 2.58169055
v -0.97526771 5.90707159 3.31910443
v -0.98489231 5.16965628 -3.31762314
v -0.98383027 5.16965628 -2.58020735
v -0.98275125 5.16965675 -1.84279537
v -0.98168838 5.16965628 -1.10538101
v -0.98061138 5.16965628 -0.36796644
v -0.97954375 5.16965628 0.36944765
v -0.97847903 5.16965723 1.10686183
v -0.97741628 5.1696558 1.84427536
v -0.97634465 5.16965628 2.58169127
v -0.97527534 5.16965723 3.31910563
v -0.98595834 4.43224001 -4.0550375
v -0.98489422 4.43224144 -3.31762266
v -0.98595834 5.16965628 -4.0550375
v -0.9838255 4.43224049 -2.58020759
v -0.98275602 4.43224144 -1.84279442
v -0.98168457 4.43224192 -1.10537994
v -0.98061603 4.43224001 -0.36796623
v -0.97955126 4.43224144 0.36944789
v -0.97847712 4.43224001 1.10686207
v -0.97742009 4.43224335 1.84427607
v -0.9763456 4.43224335 2.58169127
v -0.97526962 4.43224144 3.31910539
v -0.98596597 3.69482398 -4.05503988
v -0.9848904 3.69482446 -3.31762242
v -0.98382348 3.69482398 -2.58020735
v -0.98275328 3.69482374 -1.84279501
v -0.98169029 3.69482446 -1.1053803
v -0.98061317 3.69482446 -0.36796656
v -0.97954375 3.69482732 0.3694475
v -0.97847617 3.69482422 1.10686171
v -0.97741318 3.69482589 1.84427583
v -0.97634083 3.6948266 2.58169055
v -0.97527331 3.69482517 3.31910539
v -0.98596823 2.95740914 -4.0550375
v -0.98489016 2.95740962 -3.31762266
v -0.98382372 2.95740914 -2.5802083
v -0.98275137 2.95740867 -1.84279537
v -0.98168385 2.95740986 -1.10538077
v -0.98061413 2.9574101 -0.36796665
v -0.97954768 2.95741248 0.36944738
v -0.97849238 2.95741057 1.10686123
v -0.97739816 2.95741057 1.84427595
v -0.97634465 2.957412 2.58169055
v -0.9752754 2.957412 3.31910396
v -0.98488694 2.21923232 -3.31685901
v -0.98382181 2.21923137 -2.58097148
v -0.98276091 2.21999502 -1.8427949
v -0.98168671 2.21999454 -1.10538042
v -0.9806152 2.21999526 -0.36796662
v -0.97954947 2.21999502 0.36944744
v -0.97847903 2.21999574 1.10686123
v -0.97740877 2.21999645 1.84427595
v -0.97635227 2.22068167 2.5810051
v -0.97527063 2.22067952 3.31978989
v -0.97420681 2.21999645 4.0565176
v -0.98488516 1.48181736 -3.31685948
v -0.98156542 1.48199821 -2.58115506
v -0.98275506 1.48199821 -1.84337735
v -0.98169124 1.48257983 -1.10538042
v -0.98061985 1.4825803 -0.36796662
v -0.97954756 1.48258007 0.36944741
v -0.97847998 1.48258078 1.10686135
v -0.97741073 1.48308468 1.84377134
v -0.97633845 1.48308706 2.58082414
v -0.97730541 1.48326647 3.31979156
v -0.97420007 1.4832654 4.05720282
v -0.98156446 0.74458337 -2.58115506
v -0.98104078 0.74476427 -1.84356081
v -0.98168635 0.74454582 -1.10556221
v -0.98061532 0.74490833 -0.36814791
v -0.97955734 0.745269 0.36926624
v -0.97848284 0.74563068 1.10668027
v -0.977413 0.74549079 1.84358931
v -0.97783029 0.7456708 2.58082438
v -0.97729814 0.7456708 3.3182385
v -0.98105127 0.00734962 -1.84356105
v -0.98050404 0.0071324 -1.10556352
v -0.97995788 0.00749183 -0.36814913
v -0.97943413 0.00785434 0.36926541
v -0.97890437 0.00821594 1.10668004
v -0.97836488 0.00807609 1.84359026
v -0.97783244 0.00807515 2.58100533
v -0.97997338 9.59436417 -0.36855021
v -0.98050761 9.59436417 -1.1059649
v -0.97943413 9.59440327 0.36926556
v -0.97889888 9.59404087 1.10667956
v -0.97836298 9.59400177 1.84377038
v -0.98375893 7.38361645 -3.31629062
v -0.98595643 5.90821171 -4.0550375
v -0.47420633 2.95741153 4.05579329
v -0.47420645 3.69482589 4.05579281
v -0.47313732 3.69482589 4.79320526
v -0.47313783 2.95741105 4.79320621
v -0.47420633 4.43224239 4.05579376
v -0.47313783 4.43224144 4.79320526
v -0.47420633 5.16965771 4.05579376
v -0.47313783 5.16965818 4.79320526
v -0.47420609 5.90707254 4.05579376
v -0.47313783 5.90707254 4.79320765
v -0.48103717 8.11931419 -1.84352243
v -0.48103717 8.85672855 -1.84352231
v -0.48050287 8.85672855 -1.106107
v -0.48168606 8.11931324 -1.10610461
v -0.48061749 8.85672855 -0.36869073
v -0.48061731 8.11931419 -0.36869073
v -0.47954887 8.85672855 0.36872357
v -0.47954887 8.11931419 0.36872357
v -0.47848046 8.85672855 1.10613739
v -0.47848046 8.11931419 1.10613763
v -0.47836593 8.85673046 1.84355009
v -0.47836581 8.11931324 1.84355021
v -0.47783142 8.85673046 2.58096623
v -0.47783142 8.11931515 2.58096671
v -0.48100775 7.38247299 -2.58093762
v -0.4815715 8.11931419 -2.580935
v -0.48275456 7.38190174 -1.84351897
v -0.48168582 7.38190079 -1.10610449
v -0.48061731 7.38190222 -0.36869055
v -0.47954887 7.38190222 0.36872363
v -0.47848046 7.38190222 1.10613763
v -0.47741178 7.38190222 1.84355199
v -0.47634307 7.38190222 2.58096671
v -0.47729728 8.11931515 3.31838155
v -0.47729728 7.38190222 3.31838059
v -0.4815715 6.64448643 -2.580935
v -0.4827545 6.64448643 -1.84351981
v -0.48168594 6.64448547 -1.10610545
v -0.48061737 6.64448643 -0.36869094
v -0.47954881 6.6444869 0.36872345
v -0.47848034 6.64448738 1.10613739
v -0.47741178 6.64448595 1.84355164
v -0.47634307 6.6444869 2.58096695
v -0.47527471 6.6444869 3.31838131
v -0.47420627 7.38190222 4.05579376
v -0.47420603 6.6444869 4.05579376
v -0.4848918 5.90764284 -3.31834745
v -0.4848918 6.64448643 -3.31834602
v -0.48382306 5.90707159 -2.58093262
v -0.48275444 5.90707159 -1.84351993
v -0.481686 5.90707159 -1.10610569
v -0.48061743 5.90707159 -0.36869109
v -0.47954887 5.90707159 0.36872309
v -0.47848052 5.90707159 1.10613716
v -0.47741196 5.90707159 1.84355128
v -0.47634321 5.90707159 2.580966
v -0.47527477 5.90707159 3.31837988
v -0.4848918 5.16965628 -3.31834722
v -0.48382306 5.16965628 -2.5809319
v -0.48275456 5.16965675 -1.84351993
v -0.481686 5.16965628 -1.10610569
v -0.48061749 5.16965628 -0.36869097
v -0.47954893 5.16965628 0.36872321
v -0.47848052 5.16965723 1.10613728
v -0.47741196 5.1696558 1.84355056
v -0.47634321 5.16965628 2.58096671
v -0.47527477 5.16965628 3.31838107
v -0.48595974 4.43224001 -4.05576134
v -0.48595974 5.16965628 -4.05576134
v -0.4848918 4.43224144 -3.31834722
v -0.48382306 4.43224049 -2.5809319
v -0.48275462 4.43224144 -1.84351897
v -0.481686 4.43224192 -1.10610437
v -0.48061743 4.43224096 -0.36869073
v -0.47954887 4.43224239 0.36872345
v -0.47848052 4.43224096 1.10613751
v -0.47741196 4.43224239 1.84355164
v -0.47634321 4.43224239 2.58096671
v -0.47527477 4.43224144 3.31838107
v -0.48595974 3.69482398 -4.0557642
v -0.4848918 3.69482446 -3.31834698
v -0.48382306 3.69482398 -2.5809319
v -0.48275468 3.69482422 -1.84351957
v -0.481686 3.69482493 -1.10610485
v -0.48061743 3.69482446 -0.36869109
v -0.47954893 3.69482541 0.36872301
v -0.47848052 3.69482517 1.10613716
v -0.47741184 3.69482541 1.84355128
v -0.47634321 3.69482636 2.58096647
v -0.47527477 3.69482517 3.31838083
v -0.48596019 2.95740914 -4.05576134
v -0.48489156 2.95740962 -3.31834698
v -0.4838233 2.95740914 -2.58093286
v -0.48275468 2.95740914 -1.84351993
v -0.48168612 2.95740986 -1.10610545
v -0.48061749 2.95740962 -0.36869115
v -0.47954899 2.95741105 0.36872289
v -0.47848052 2.9574101 1.10613668
v -0.4774119 2.95741153 1.84355128
v -0.47634321 2.95741153 2.58096647
v -0.47527498 2.95741153 3.3183794
v -0.48489156 2.21999526 -3.31834674
v -0.4838233 2.21999478 -2.58093262
v -0.48275468 2.21999502 -1.84351933
v -0.48168612 2.21999454 -1.10610497
v -0.48061749 2.21999526 -0.36869109
v -0.47954899 2.21999526 0.36872292
v -0.47848052 2.21999574 1.1061368
v -0.47741202 2.21999502 1.8435514
v -0.47634321 2.21999574 2.58096647
v -0.47527498 2.21999526 3.31837964
v -0.47420633 2.21999598 4.05579281
v -0.48489174 1.48258102 -3.31834722
v -0.48157144 1.48257983 -2.58093524
v -0.48275444 1.48258007 -1.84351957
v -0.481686 1.48257959 -1.10610497
v -0.48061743 1.4825803 -0.36869112
v -0.47954899 1.4825803 0.36872292
v -0.47848052 1.48258078 1.10613692
v -0.47741202 1.48258007 1.8435514
v -0.47634345 1.48258078 2.58096647
v -0.4772974 1.4825803 3.31838131
v -0.47420633 1.48258102 4.05579281
v -0.48157144 0.74516517 -2.58093524
v -0.48103702 0.74516517 -1.84352183
v -0.48168606 0.74516702 -1.10610557
v -0.48061755 0.74516702 -0.3686913
v -0.47954899 0.74516565 0.36872289
v -0.47848052 0.74516517 1.10613692
v -0.47741207 0.74516743 1.84355032
v -0.47783151 0.74516606 2.58096671
v -0.4772974 0.74516606 3.31838083
v -0.48103702 0.00775053 -1.84352207
v -0.48050281 0.0077519 -1.10610688
v -0.47996861 0.0077519 -0.36869255
v -0.47943431 0.00775101 0.36872208
v -0.47890007 0.00775009 1.10613656
v -0.47836587 0.00775238 1.84355128
v -0.47783151 0.0077519 2.58096671
v -0.48050287 9.59414387 -1.106107
v -0.47996861 9.59414387 -0.36869249
v -0.47943437 9.59414387 0.36872214
v -0.47890005 9.59414387 1.1061362
v -0.47836587 9.59414387 1.84355044
v -0.48376438 7.38304186 -3.31835103
v -0.48595974 5.90821266 -4.05576134
vn -1 0 0.00145
vn -1 -0 0.00145
vn -1 0 0.00145
vn -1 0 0.00145
vn -1 0 0.00145
vn -1 -0 0.00145
vn -1 -0 0.00145
vn -1 0 0.00145
vn -1 -0 0.00145
vn -1 -0 0.00145
vn -1 0 0.00145
vn -1 -0 0.00145
vn -1 -0 0.00145
vn -1 0 0.00145
vn -1 0 0.00145
vn -1 0 0.00145
vn -1 0 0.00145
vn -1 0 0.00145
vn -1 -0 0.00145
vn -1 0 0.00145
vn -1 0 0.00145
vn -1 -0 0.00145
vn -1 -0 0.00145
vn -1 -0 0.00145
vn -1 -0 0.00145
vn -1 -0 0.00145
vn -1 -0 0.00145
vn -1 -0 0.00145
vn -1 -0 0.00145
vn -1 -0 0.00145
vn -1 0 0.00145
vn -1 0 0.00145
vn -1 0 0.00145
vn -1 0 0.00145
vn -1 0 0.00145
vn -1 0 0.00145
vn -1 0 0.00145
vn -1 0 0.00145
vn -1 0 0.00145
vn -1 0 0.00145
vn -1 0 0.00145
vn -1 0 0.00145
vn -1 0 0.00145
vn -1 0 0.00145
vn -1 0 0.00145
vn -1 0 0.00145
vn -1 0 0.00145
vn -1 0 0.00145
vn -1 0 0.00145
vn -1 0 0.00145
vn -1 -0 0.00145
vn -1 -0 0.00145
vn -1 -0 0.00145
vn -1 0 0.00145
vn -1 0 0.00145
vn -1 0 0.00145
vn -1 0 0.00145
vn -1 0 0.00145
vn -1 0 0.00145
vn -1 -0 0.00145
vn -1 0 0.00145
vn -1 0 0.00145
vn -1 -0 0.00145
vn -1 -0 0.00145
vn -1 -0 0.00145
vn -1 0 0.00145
vn -1 0 0.00145
vn -1 -0 0.00145
vn -1 0 0.00145
vn -1 0 0.00145
vn -1 0 0.00145
vn -1 0 0.00145
vn -1 0 0.00145
vn -1 0 0.00145
vn -1 0 0.00145
vn -1 0 0.00145
vn -1 -0 0.00145
vn -1 0 0.00145
vn -1 0 0.00145
vn -1 0 0.00145
vn -1 0 0.00145
vn -1 0 0.00145
vn -1 0 0.00145
vn -1 0 0.00145
vn -1 0 0.00145
vn -1 0 0.00145
vn -1 -0 0.00145
vn -1 -0 0.00145
vn -1 -0 0.00145
vn -1 -0 0.00145
vn -1 0 0.00145
vn -1 0 0.00145
vn -1 0 0.00145
vn -1 0 0.00145
vn -1 0 0.00145
vn -1 0 0.00145
vn -1 0 0.00145
vn -1 0 0.00145
vn -1 -0 0.00145
vn -1 0 0.00145
vn -1 0 0.00145
vn -1 -0 0.00145
vn -1 -0 0.00145
vn -1 -0 0.00145
vn -1 0 0.00145
vn -1 -0 0.00145
vn -1 -0 0.00145
vn -1 0 0.00145
vn -1 0 0.00145
vn -1 0 0.00145
vn -1 0 0.00145
vn -0.99999 0.00115 0.00412
vn -0.99999 0.00115 0.00412
vn -1 0 0.00144
vn -1 0 0.00144
vn 1 -0 -0.00145
vn 1 0 -0.00145
vn 1 -0 -0.00145
vn 1 -0 -0.00145
vn 1 -0 -0.00145
vn 1 0 -0.00145
vn 1 0 -0.00145
vn 1 -0 -0.00145
vn 1 0 -0.00145
vn 1 0 -0.00145
vn 1 -0 -0.00145
vn 1 0 -0.00145
vn 1 0 -0.00145
vn 1 -0 -0.00145
vn 1 -0 -0.00145
vn 1 -0 -0.00145
vn 1 -0 -0.00145
vn 1 -0 -0.00145
vn 1 0 -0.00145
vn 1 -0 -0.00145
vn 1 -0 -0.00145
vn 1 0 -0.00145
vn 1 0 -0.00145
vn 1 0 -0.00145
vn 1 0 -0.00145
vn 1 0 -0.00145
vn 1 0 -0.00145
vn 1 0 -0.00145
vn 1 0 -0.00145
vn 1 0 -0.00145
vn 1 -0 -0.00145
vn 1 -0 -0.00145
vn 1 -0 -0.00145
vn 1 -0 -0.00145
vn 1 -0 -0.00145
vn 1 -0 -0.00145
vn 1 -0 -0.00145
vn 1 -0 -0.00145
vn 1 -0 -0.00145
vn 1 -0 -0.00145
vn 1 -0 -0.00145
vn 1 -0 -0.00145
vn 1 -0 -0.00145
vn 1 -0 -0.00145
vn 1 -0 -0.00145
vn 1 -0 -0.00145
vn 1 -0 -0.00145
vn 1 -0 -0.00145
vn 1 -0 -0.00145
vn 1 -0 -0.00145
vn 1 0 -0.00145
vn 1 0 -0.00145
vn 1 0 -0.00145
vn 1 -0 -0.00145
vn 1 -0 -0.00145
vn 1 -0 -0.00145
vn 1 -0 -0.00145
vn 1 -0 -0.00145
vn 1 -0 -0.00145
vn 1 0 -0.00145
vn 1 -0 -0.00145
vn 1 -0 -0.00145
vn 1 0 -0.00145
vn 1 0 -0.00145
vn 1 0 -0.00145
vn 1 -0 -0.00145
vn 1 -0 -0.00145
vn 1 0 -0.00145
vn 1 -0 -0.00145
vn 1 -0 -0.00145
vn 1 -0 -0.00145
vn 1 -0 -0.00145
vn 1 -0 -0.00145
vn 1 -0 -0.00145
vn 1 -0 -0.00145
vn 1 -0 -0.00145
vn 1 0 -0.00145
vn 1 -0 -0.00145
vn 1 -0 -0.00145
vn 1 -0 -0.00145
vn 1 -0 -0.00145
vn 1 -0 -0.00145
vn 1 -0 -0.00145
vn 1 -0 -0.00145
vn 1 -0 -0.00145
vn 1 -0 -0.00145
vn 1 0 -0.00145
vn 1 0 -0.00145
vn 1 0 -0.00145
vn 1 0 -0.00145
vn 1 -0 -0.00145
vn 1 -0 -0.00145
vn 1 -0 -0.00145
vn 1 -0 -0.00145
vn 1 -0 -0.00145
vn 1 -0 -0.00145
vn 1 -0 -0.00145
vn 1 -0 -0.00145
vn 1 0 -0.00145
vn 1 -0 -0.00145
vn 1 -0 -0.00145
vn 1 0 -0.00145
vn 1 0 -0.00145
vn 1 0 -0.00145
vn 1 -0 -0.00145
vn 1 0 -0.00145
vn 1 0 -0.00145
vn 1 -0 -0.00145
vn 1 -0 -0.00145
vn 1 -0 -0.00145
vn 1 -0 -0.00145
vn 0.99999 -0.00115 -0.00412
vn 0.99999 -0.00115 -0.00412
vn 1 0 -0.00145
vn 1 0 -0.00145
vn -0 -1 -0
vn 0.00145 0 1
vn 0.00145 0 1
vn 0.00145 0 1
vn 0.00145 -0 1
vn 0.00145 -0 1
vn 0 1 0
vn 0.0008 1 -0
vn 0.0008 1 -0
vn 0.00045 0.00025 -1
vn 0.00045 0.00025 -1
vn 0.00072 0 1
vn -0.00014 1 -0.0001
vn -0.00014 1 -0.0001
vn 0.00078 1 0
vn 0.00078 1 0
vn -0.00165 -0.00167 -1
vn -0.00165 -0.00167 -1
vn -0.00028 -0 1
vn -0.00028 -0 1
vn -0.0005 1 0.00034
vn -0.0005 1 0.00034
vn 0.00248 -0.00023 1
vn 0.00282 0 1
vn -0.00119 1 0.00013
vn -0.00119 1 0.00013
vn -0.00288 0.00045 -1
vn -0.00221 0.00052 -1
vn 0.00213 -0.00046 1
vn -0.00145 0 -1
vn -0.00145 0 -1
vn -0.00145 0 -1
vn 0 -1 0
vn 0 -1 0
vn -0.00145 -0 -1
vn -0.00221 -0.00052 -1
vn -0.00259 -0.00026 -1
vn 0.00179 0.00023 1
vn 0.00145 -0 1
vn 0.00135 -1 0.00012
vn 0.00135 -1 0.00012
vn -0.00297 0 -1
vn -0.00137 -1 1E-05
vn -0.00137 -1 1E-05
vn 0.00214 0.00046 1
vn 0.00098 -1 0.00012
vn 0.00098 -1 0.00012
vn 0.00044 0 -1
vn 0.00044 0 -1
vn -0.00101 -1 0
vn -0.00101 -1 0
vn 0.00127 -0.00105 1
vn 0.00127 -0.00105 1
vn 0.00102 -1 -0.00015
vn 0.00095 -1 5E-05
vn 8E-05 0 -1
vn 0.00052 -1 0.00024
vn -0.00021 -1 0.00025
vn -0.00068 -1 8E-05
vn -0.00072 -1 -5E-05
vn -0.00065 -1 -0
vn -0.0001 0.00012 1
vn -0.0001 0.00012 1
vn 0.00046 1 -1E-05
vn 0.00044 1 0
vn -0.0001 0.00012 -1
vn 0.00032 1 0.00011
vn -4E-05 1 0.00014
vn 0.00044 -0 1
vn 0.00044 -0 1
vn -0.00025 1 3E-05
vn 0.00115 1 0.00077
vn 0.00115 1 0.00077
vn 0.00115 1 0.00077
vn 0.00115 1 0.00077
vn -0.00355 0.00039 -0.99999
vn -0.00355 0.00039 -0.99999
vn 0 1 0.00077
vn 0 1 0.00077
vn 0 1 0.00077
vn 0 1 0.00077
vn -0.00145 0 -1
vn -0.00145 0 -1
vt 0.08333 0.69231
vt 0 0.69231
vt 0 0.61538
vt 0.08333 0.61538
vt 0 0.53846
vt 0.08333 0.53846
vt 0 0.46154
vt 0.08333 0.46154
vt 0 0.38462
vt 0.08333 0.38462
vt 0.75 0.15385
vt 0.66667 0.15385
vt 0.66667 0.07692
vt 0.75 0.07692
vt 0.58333 0.15385
vt 0.58333 0.07692
vt 0.5 0.15385
vt 0.5 0.07692
vt 0.41667 0.15385
vt 0.41667 0.07692
vt 0.33333 0.15385
vt 0.33333 0.07692
vt 0.25 0.15385
vt 0.25 0.07692
vt 0.83333 0.23071
vt 0.75 0.23077
vt 0.83333 0.15385
vt 0.66667 0.23077
vt 0.58333 0.23077
vt 0.5 0.23077
vt 0.41667 0.23077
vt 0.33333 0.23077
vt 0.25 0.23077
vt 0.16667 0.23077
vt 0.16667 0.15385
vt 0.83333 0.30769
vt 0.75 0.30769
vt 0.66667 0.30769
vt 0.58333 0.30769
vt 0.5 0.30769
vt 0.41667 0.30769
vt 0.33333 0.30769
vt 0.25 0.30769
vt 0.16667 0.30769
vt 0.08333 0.30769
vt 0.08333 0.23077
vt 0.91667 0.38456
vt 0.83333 0.38462
vt 0.91667 0.30769
vt 0.75 0.38462
vt 0.66667 0.38462
vt 0.58333 0.38462
vt 0.5 0.38462
vt 0.41667 0.38462
vt 0.33333 0.38462
vt 0.25 0.38462
vt 0.16667 0.38462
vt 0.91667 0.46154
vt 0.83333 0.46154
vt 0.75 0.46154
vt 0.66667 0.46154
vt 0.58333 0.46154
vt 0.5 0.46154
vt 0.41667 0.46154
vt 0.33333 0.46154
vt 0.25 0.46154
vt 0.16667 0.46154
vt 1 0.53846
vt 0.91667 0.53846
vt 1 0.46154
vt 0.83333 0.53846
vt 0.75 0.53846
vt 0.66667 0.53846
vt 0.58333 0.53846
vt 0.5 0.53846
vt 0.41667 0.53846
vt 0.33333 0.53846
vt 0.25 0.53846
vt 0.16667 0.53846
vt 1 0.61538
vt 0.91667 0.61538
vt 0.83333 0.61538
vt 0.75 0.61538
vt 0.66667 0.61538
vt 0.58333 0.61538
vt 0.5 0.61538
vt 0.41667 0.61538
vt 0.33333 0.61538
vt 0.25 0.61538
vt 0.16667 0.61538
vt 1 0.69231
vt 0.91667 0.69231
vt 0.83333 0.69231
vt 0.75 0.69231
vt 0.66667 0.69231
vt 0.58333 0.69231
vt 0.5 0.69231
vt 0.41667 0.69231
vt 0.33333 0.69231
vt 0.25 0.69231
vt 0.16667 0.69231
vt 0.91667 0.76923
vt 0.83333 0.76923
vt 0.75 0.76923
vt 0.66667 0.76923
vt 0.58333 0.76923
vt 0.5 0.76923
vt 0.41667 0.76923
vt 0.33333 0.76923
vt 0.25 0.76923
vt 0.16667 0.76923
vt 0.08333 0.76923
vt 0.91667 0.84615
vt 0.83333 0.84615
vt 0.75 0.84615
vt 0.66667 0.84615
vt 0.58333 0.84615
vt 0.5 0.84615
vt 0.41667 0.84615
vt 0.33333 0.84615
vt 0.25 0.84615
vt 0.16667 0.84615
vt 0.08333 0.84615
vt 0.83333 0.92308
vt 0.75 0.92308
vt 0.66667 0.92308
vt 0.58333 0.92308
vt 0.5 0.92308
vt 0.41667 0.92308
vt 0.33333 0.92308
vt 0.25 0.92308
vt 0.16667 0.92308
vt 0.75 1
vt 0.66667 1
vt 0.58333 1
vt 0.5 1
vt 0.41667 1
vt 0.33333 1
vt 0.25 1
vt 0.58333 0
vt 0.66667 0
vt 0.5 0
vt 0.41667 0
vt 0.33333 0
vt 0.91667 0.23065
vt 1 0.3845
usemtl mat0
f 1/1/1 2/2/1 3/3/1
f 1/1/1 3/3/1 4/4/1
f 4/4/2 3/3/2 5/5/2
f 4/4/2 5/5/2 6/6/2
f 6/6/3 5/5/3 7/7/3
f 6/6/3 7/7/3 8/8/3
f 8/8/4 7/7/4 9/9/4
f 8/8/4 9/9/4 10/10/4
f 11/11/5 12/12/5 13/13/5
f 11/11/5 13/13/5 14/14/5
f 12/12/6 15/15/6 16/16/6
f 12/12/6 16/16/6 13/13/6
f 15/15/7 17/17/7 18/18/7
f 15/15/7 18/18/7 16/16/7
f 17/17/8 19/19/8 20/20/8
f 17/17/8 20/20/8 18/18/8
f 19/19/9 21/21/9 22/22/9
f 19/19/9 22/22/9 20/20/9
f 21/21/10 23/23/10 24/24/10
f 21/21/10 24/24/10 22/22/10
f 25/25/11 26/26/11 11/11/11
f 25/25/11 11/11/11 27/27/11
f 26/26/12 28/28/12 12/12/12
f 26/26/12 12/12/12 11/11/12
f 28/28/13 29/29/13 15/15/13
f 28/28/13 15/15/13 12/12/13
f 29/29/14 30/30/14 17/17/14
f 29/29/14 17/17/14 15/15/14
f 30/30/15 31/31/15 19/19/15
f 30/30/15 19/19/15 17/17/15
f 31/31/16 32/32/16 21/21/16
f 31/31/16 21/21/16 19/19/16
f 32/32/17 33/33/17 23/23/17
f 32/32/17 23/23/17 21/21/17
f 33/33/18 34/34/18 35/35/18
f 33/33/18 35/35/18 23/23/18
f 36/36/19 37/37/19 26/26/19
f 36/36/19 26/26/19 25/25/19
f 37/37/20 38/38/20 28/28/20
f 37/37/20 28/28/20 26/26/20
f 38/38/21 39/39/21 29/29/21
f 38/38/21 29/29/21 28/28/21
f 39/39/22 40/40/22 30/30/22
f 39/39/22 30/30/22 29/29/22
f 40/40/23 41/41/23 31/31/23
f 40/40/23 31/31/23 30/30/23
f 41/41/24 42/42/24 32/32/24
f 41/41/24 32/32/24 31/31/24
f 42/42/25 43/43/25 33/33/25
f 42/42/25 33/33/25 32/32/25
f 43/43/26 44/44/26 34/34/26
f 43/43/26 34/34/26 33/33/26
f 44/44/27 45/45/27 46/46/27
f 44/44/27 46/46/27 34/34/27
f 47/47/28 48/48/28 36/36/28
f 47/47/28 36/36/28 49/49/28
f 48/48/29 50/50/29 37/37/29
f 48/48/29 37/37/29 36/36/29
f 50/50/30 51/51/30 38/38/30
f 50/50/30 38/38/30 37/37/30
f 51/51/31 52/52/31 39/39/31
f 51/51/31 39/39/31 38/38/31
f 52/52/32 53/53/32 40/40/32
f 52/52/32 40/40/32 39/39/32
f 53/53/33 54/54/33 41/41/33
f 53/53/33 41/41/33 40/40/33
f 54/54/34 55/55/34 42/42/34
f 54/54/34 42/42/34 41/41/34
f 55/55/35 56/56/35 43/43/35
f 55/55/35 43/43/35 42/42/35
f 56/56/36 57/57/36 44/44/36
f 56/56/36 44/44/36 43/43/36
f 57/57/37 10/10/37 45/45/37
f 57/57/37 45/45/37 44/44/37
f 58/58/38 59/59/38 48/48/38
f 58/58/38 48/48/38 47/47/38
f 59/59/39 60/60/39 50/50/39
f 59/59/39 50/50/39 48/48/39
f 60/60/40 61/61/40 51/51/40
f 60/60/40 51/51/40 50/50/40
f 61/61/41 62/62/41 52/52/41
f 61/61/41 52/52/41 51/51/41
f 62/62/42 63/63/42 53/53/42
f 62/62/42 53/53/42 52/52/42
f 63/63/43 64/64/43 54/54/43
f 63/63/43 54/54/43 53/53/43
f 64/64/44 65/65/44 55/55/44
f 64/64/44 55/55/44 54/54/44
f 65/65/45 66/66/45 56/56/45
f 65/65/45 56/56/45 55/55/45
f 66/66/14 67/67/14 57/57/14
f 66/66/14 57/57/14 56/56/14
f 67/67/46 8/8/46 10/10/46
f 67/67/46 10/10/46 57/57/46
f 68/68/47 69/69/47 58/58/47
f 68/68/47 58/58/47 70/70/47
f 69/69/48 71/71/48 59/59/48
f 69/69/48 59/59/48 58/58/48
f 71/71/49 72/72/49 60/60/49
f 71/71/49 60/60/49 59/59/49
f 72/72/50 73/73/50 61/61/50
f 72/72/50 61/61/50 60/60/50
f 73/73/51 74/74/51 62/62/51
f 73/73/51 62/62/51 61/61/51
f 74/74/52 75/75/52 63/63/52
f 74/74/52 63/63/52 62/62/52
f 75/75/53 76/76/53 64/64/53
f 75/75/53 64/64/53 63/63/53
f 76/76/54 77/77/54 65/65/54
f 76/76/54 65/65/54 64/64/54
f 77/77/55 78/78/55 66/66/55
f 77/77/55 66/66/55 65/65/55
f 78/78/56 79/79/56 67/67/56
f 78/78/56 67/67/56 66/66/56
f 79/79/57 6/6/57 8/8/57
f 79/79/57 8/8/57 67/67/57
f 80/80/47 81/81/47 69/69/47
f 80/80/47 69/69/47 68/68/47
f 81/81/48 82/82/48 71/71/48
f 81/81/48 71/71/48 69/69/48
f 82/82/58 83/83/58 72/72/58
f 82/82/58 72/72/58 71/71/58
f 83/83/59 84/84/59 73/73/59
f 83/83/59 73/73/59 72/72/59
f 84/84/60 85/85/60 74/74/60
f 84/84/60 74/74/60 73/73/60
f 85/85/61 86/86/61 75/75/61
f 85/85/61 75/75/61 74/74/61
f 86/86/62 87/87/62 76/76/62
f 86/86/62 76/76/62 75/75/62
f 87/87/63 88/88/63 77/77/63
f 87/87/63 77/77/63 76/76/63
f 88/88/64 89/89/64 78/78/64
f 88/88/64 78/78/64 77/77/64
f 89/89/65 90/90/65 79/79/65
f 89/89/65 79/79/65 78/78/65
f 90/90/66 4/4/66 6/6/66
f 90/90/66 6/6/66 79/79/66
f 91/91/67 92/92/67 81/81/67
f 91/91/67 81/81/67 80/80/67
f 92/92/68 93/93/68 82/82/68
f 92/92/68 82/82/68 81/81/68
f 93/93/69 94/94/69 83/83/69
f 93/93/69 83/83/69 82/82/69
f 94/94/70 95/95/70 84/84/70
f 94/94/70 84/84/70 83/83/70
f 95/95/71 96/96/71 85/85/71
f 95/95/71 85/85/71 84/84/71
f 96/96/72 97/97/72 86/86/72
f 96/96/72 86/86/72 85/85/72
f 97/97/73 98/98/73 87/87/73
f 97/97/73 87/87/73 86/86/73
f 98/98/74 99/99/74 88/88/74
f 98/98/74 88/88/74 87/87/74
f 99/99/75 100/100/75 89/89/75
f 99/99/75 89/89/75 88/88/75
f 100/100/76 101/101/76 90/90/76
f 100/100/76 90/90/76 89/89/76
f 101/101/77 1/1/77 4/4/77
f 101/101/77 4/4/77 90/90/77
f 102/102/78 103/103/78 93/93/78
f 102/102/78 93/93/78 92/92/78
f 103/103/79 104/104/79 94/94/79
f 103/103/79 94/94/79 93/93/79
f 104/104/8 105/105/8 95/95/8
f 104/104/8 95/95/8 94/94/8
f 105/105/80 106/106/80 96/96/80
f 105/105/80 96/96/80 95/95/80
f 106/106/81 107/107/81 97/97/81
f 106/106/81 97/97/81 96/96/81
f 107/107/81 108/108/81 98/98/81
f 107/107/81 98/98/81 97/97/81
f 108/108/82 109/109/82 99/99/82
f 108/108/82 99/99/82 98/98/82
f 109/109/83 110/110/83 100/100/83
f 109/109/83 100/100/83 99/99/83
f 110/110/84 111/111/84 101/101/84
f 110/110/84 101/101/84 100/100/84
f 111/111/85 112/112/85 1/1/85
f 111/111/85 1/1/85 101/101/85
f 113/113/86 114/114/86 103/103/86
f 113/113/86 103/103/86 102/102/86
f 114/114/87 115/115/87 104/104/87
f 114/114/87 104/104/87 103/103/87
f 115/115/88 116/116/88 105/105/88
f 115/115/88 105/105/88 104/104/88
f 116/116/89 117/117/89 106/106/89
f 116/116/89 106/106/89 105/105/89
f 117/117/90 118/118/90 107/107/90
f 117/117/90 107/107/90 106/106/90
f 118/118/91 119/119/91 108/108/91
f 118/118/91 108/108/91 107/107/91
f 119/119/15 120/120/15 109/109/15
f 119/119/15 109/109/15 108/108/15
f 120/120/92 121/121/92 110/110/92
f 120/120/92 110/110/92 109/109/92
f 121/121/93 122/122/93 111/111/93
f 121/121/93 111/111/93 110/110/93
f 122/122/94 123/123/94 112/112/94
f 122/122/94 112/112/94 111/111/94
f 124/124/95 125/125/95 115/115/95
f 124/124/95 115/115/95 114/114/95
f 125/125/96 126/126/96 116/116/96
f 125/125/96 116/116/96 115/115/96
f 126/126/97 127/127/97 117/117/97
f 126/126/97 117/117/97 116/116/97
f 127/127/98 128/128/98 118/118/98
f 127/127/98 118/118/98 117/117/98
f 128/128/99 129/129/99 119/119/99
f 128/128/99 119/119/99 118/118/99
f 129/129/100 130/130/100 120/120/100
f 129/129/100 120/120/100 119/119/100
f 130/130/101 131/131/101 121/121/101
f 130/130/101 121/121/101 120/120/101
f 131/131/5 132/132/5 122/122/5
f 131/131/5 122/122/5 121/121/5
f 133/133/102 134/134/102 126/126/102
f 133/133/102 126/126/102 125/125/102
f 134/134/103 135/135/103 127/127/103
f 134/134/103 127/127/103 126/126/103
f 135/135/104 136/136/104 128/128/104
f 135/135/104 128/128/104 127/127/104
f 136/136/105 137/137/105 129/129/105
f 136/136/105 129/129/105 128/128/105
f 137/137/106 138/138/106 130/130/106
f 137/137/106 130/130/106 129/129/106
f 138/138/107 139/139/107 131/131/107
f 138/138/107 131/131/107 130/130/107
f 13/13/108 16/16/108 140/140/108
f 13/13/108 140/140/108 141/141/108
f 16/16/109 18/18/109 142/142/109
f 16/16/109 142/142/109 140/140/109
f 18/18/110 20/20/110 143/143/110
f 18/18/110 143/143/110 142/142/110
f 20/20/111 22/22/111 144/144/111
f 20/20/111 144/144/111 143/143/111
f 49/49/28 36/36/28 25/25/112
f 49/49/28 25/25/112 145/145/113
f 70/70/47 58/58/47 47/47/114
f 70/70/47 47/47/114 146/146/115
f 147/1/116 148/4/116 149/3/116
f 147/1/116 149/3/116 150/2/116
f 148/4/117 151/6/117 152/5/117
f 148/4/117 152/5/117 149/3/117
f 151/6/118 153/8/118 154/7/118
f 151/6/118 154/7/118 152/5/118
f 153/8/119 155/10/119 156/9/119
f 153/8/119 156/9/119 154/7/119
f 157/11/120 158/14/120 159/13/120
f 157/11/120 159/13/120 160/12/120
f 160/12/121 159/13/121 161/16/121
f 160/12/121 161/16/121 162/15/121
f 162/15/122 161/16/122 163/18/122
f 162/15/122 163/18/122 164/17/122
f 164/17/123 163/18/123 165/20/123
f 164/17/123 165/20/123 166/19/123
f 166/19/124 165/20/124 167/22/124
f 166/19/124 167/22/124 168/21/124
f 168/21/125 167/22/125 169/24/125
f 168/21/125 169/24/125 170/23/125
f 171/25/126 172/27/126 157/11/126
f 171/25/126 157/11/126 173/26/126
f 173/26/127 157/11/127 160/12/127
f 173/26/127 160/12/127 174/28/127
f 174/28/128 160/12/128 162/15/128
f 174/28/128 162/15/128 175/29/128
f 175/29/129 162/15/129 164/17/129
f 175/29/129 164/17/129 176/30/129
f 176/30/130 164/17/130 166/19/130
f 176/30/130 166/19/130 177/31/130
f 177/31/131 166/19/131 168/21/131
f 177/31/131 168/21/131 178/32/131
f 178/32/132 168/21/132 170/23/132
f 178/32/132 170/23/132 179/33/132
f 179/33/133 170/23/133 180/35/133
f 179/33/133 180/35/133 181/34/133
f 182/36/134 171/25/134 173/26/134
f 182/36/134 173/26/134 183/37/134
f 183/37/135 173/26/135 174/28/135
f 183/37/135 174/28/135 184/38/135
f 184/38/136 174/28/136 175/29/136
f 184/38/136 175/29/136 185/39/136
f 185/39/137 175/29/137 176/30/137
f 185/39/137 176/30/137 186/40/137
f 186/40/138 176/30/138 177/31/138
f 186/40/138 177/31/138 187/41/138
f 187/41/139 177/31/139 178/32/139
f 187/41/139 178/32/139 188/42/139
f 188/42/140 178/32/140 179/33/140
f 188/42/140 179/33/140 189/43/140
f 189/43/141 179/33/141 181/34/141
f 189/43/141 181/34/141 190/44/141
f 190/44/142 181/34/142 191/46/142
f 190/44/142 191/46/142 192/45/142
f 193/47/143 194/49/143 182/36/143
f 193/47/143 182/36/143 195/48/143
f 195/48/144 182/36/144 183/37/144
f 195/48/144 183/37/144 196/50/144
f 196/50/145 183/37/145 184/38/145
f 196/50/145 184/38/145 197/51/145
f 197/51/146 184/38/146 185/39/146
f 197/51/146 185/39/146 198/52/146
f 198/52/147 185/39/147 186/40/147
f 198/52/147 186/40/147 199/53/147
f 199/53/148 186/40/148 187/41/148
f 199/53/148 187/41/148 200/54/148
f 200/54/149 187/41/149 188/42/149
f 200/54/149 188/42/149 201/55/149
f 201/55/150 188/42/150 189/43/150
f 201/55/150 189/43/150 202/56/150
f 202/56/151 189/43/151 190/44/151
f 202/56/151 190/44/151 203/57/151
f 203/57/152 190/44/152 192/45/152
f 203/57/152 192/45/152 155/10/152
f 204/58/153 193/47/153 195/48/153
f 204/58/153 195/48/153 205/59/153
f 205/59/154 195/48/154 196/50/154
f 205/59/154 196/50/154 206/60/154
f 206/60/155 196/50/155 197/51/155
f 206/60/155 197/51/155 207/61/155
f 207/61/156 197/51/156 198/52/156
f 207/61/156 198/52/156 208/62/156
f 208/62/157 198/52/157 199/53/157
f 208/62/157 199/53/157 209/63/157
f 209/63/158 199/53/158 200/54/158
f 209/63/158 200/54/158 210/64/158
f 210/64/159 200/54/159 201/55/159
f 210/64/159 201/55/159 211/65/159
f 211/65/160 201/55/160 202/56/160
f 211/65/160 202/56/160 212/66/160
f 212/66/129 202/56/129 203/57/129
f 212/66/129 203/57/129 213/67/129
f 213/67/161 203/57/161 155/10/161
f 213/67/161 155/10/161 153/8/161
f 214/68/162 215/70/162 204/58/162
f 214/68/162 204/58/162 216/69/162
f 216/69/163 204/58/163 205/59/163
f 216/69/163 205/59/163 217/71/163
f 217/71/164 205/59/164 206/60/164
f 217/71/164 206/60/164 218/72/164
f 218/72/165 206/60/165 207/61/165
f 218/72/165 207/61/165 219/73/165
f 219/73/166 207/61/166 208/62/166
f 219/73/166 208/62/166 220/74/166
f 220/74/167 208/62/167 209/63/167
f 220/74/167 209/63/167 221/75/167
f 221/75/168 209/63/168 210/64/168
f 221/75/168 210/64/168 222/76/168
f 222/76/169 210/64/169 211/65/169
f 222/76/169 211/65/169 223/77/169
f 223/77/170 211/65/170 212/66/170
f 223/77/170 212/66/170 224/78/170
f 224/78/171 212/66/171 213/67/171
f 224/78/171 213/67/171 225/79/171
f 225/79/172 213/67/172 153/8/172
f 225/79/172 153/8/172 151/6/172
f 226/80/162 214/68/162 216/69/162
f 226/80/162 216/69/162 227/81/162
f 227/81/163 216/69/163 217/71/163
f 227/81/163 217/71/163 228/82/163
f 228/82/173 217/71/173 218/72/173
f 228/82/173 218/72/173 229/83/173
f 229/83/174 218/72/174 219/73/174
f 229/83/174 219/73/174 230/84/174
f 230/84/175 219/73/175 220/74/175
f 230/84/175 220/74/175 231/85/175
f 231/85/176 220/74/176 221/75/176
f 231/85/176 221/75/176 232/86/176
f 232/86/177 221/75/177 222/76/177
f 232/86/177 222/76/177 233/87/177
f 233/87/178 222/76/178 223/77/178
f 233/87/178 223/77/178 234/88/178
f 234/88/179 223/77/179 224/78/179
f 234/88/179 224/78/179 235/89/179
f 235/89/180 224/78/180 225/79/180
f 235/89/180 225/79/180 236/90/180
f 236/90/181 225/79/181 151/6/181
f 236/90/181 151/6/181 148/4/181
f 237/91/182 226/80/182 227/81/182
f 237/91/182 227/81/182 238/92/182
f 238/92/183 227/81/183 228/82/183
f 238/92/183 228/82/183 239/93/183
f 239/93/184 228/82/184 229/83/184
f 239/93/184 229/83/184 240/94/184
f 240/94/185 229/83/185 230/84/185
f 240/94/185 230/84/185 241/95/185
f 241/95/186 230/84/186 231/85/186
f 241/95/186 231/85/186 242/96/186
f 242/96/187 231/85/187 232/86/187
f 242/96/187 232/86/187 243/97/187
f 243/97/188 232/86/188 233/87/188
f 243/97/188 233/87/188 244/98/188
f 244/98/189 233/87/189 234/88/189
f 244/98/189 234/88/189 245/99/189
f 245/99/190 234/88/190 235/89/190
f 245/99/190 235/89/190 246/100/190
f 246/100/191 235/89/191 236/90/191
f 246/100/191 236/90/191 247/101/191
f 247/101/192 236/90/192 148/4/192
f 247/101/192 148/4/192 147/1/192
f 248/102/193 238/92/193 239/93/193
f 248/102/193 239/93/193 249/103/193
f 249/103/194 239/93/194 240/94/194
f 249/103/194 240/94/194 250/104/194
f 250/104/123 240/94/123 241/95/123
f 250/104/123 241/95/123 251/105/123
f 251/105/195 241/95/195 242/96/195
f 251/105/195 242/96/195 252/106/195
f 252/106/196 242/96/196 243/97/196
f 252/106/196 243/97/196 253/107/196
f 253/107/196 243/97/196 244/98/196
f 253/107/196 244/98/196 254/108/196
f 254/108/197 244/98/197 245/99/197
f 254/108/197 245/99/197 255/109/197
f 255/109/198 245/99/198 246/100/198
f 255/109/198 246/100/198 256/110/198
f 256/110/199 246/100/199 247/101/199
f 256/110/199 247/101/199 257/111/199
f 257/111/200 247/101/200 147/1/200
f 257/111/200 147/1/200 258/112/200
f 259/113/201 248/102/201 249/103/201
f 259/113/201 249/103/201 260/114/201
f 260/114/202 249/103/202 250/104/202
f 260/114/202 250/104/202 261/115/202
f 261/115/203 250/104/203 251/105/203
f 261/115/203 251/105/203 262/116/203
f 262/116/204 251/105/204 252/106/204
f 262/116/204 252/106/204 263/117/204
f 263/117/205 252/106/205 253/107/205
f 263/117/205 253/107/205 264/118/205
f 264/118/206 253/107/206 254/108/206
f 264/118/206 254/108/206 265/119/206
f 265/119/130 254/108/130 255/109/130
f 265/119/130 255/109/130 266/120/130
f 266/120/207 255/109/207 256/110/207
f 266/120/207 256/110/207 267/121/207
f 267/121/208 256/110/208 257/111/208
f 267/121/208 257/111/208 268/122/208
f 268/122/209 257/111/209 258/112/209
f 268/122/209 258/112/209 269/123/209
f 270/124/210 260/114/210 261/115/210
f 270/124/210 261/115/210 271/125/210
f 271/125/211 261/115/211 262/116/211
f 271/125/211 262/116/211 272/126/211
f 272/126/212 262/116/212 263/117/212
f 272/126/212 263/117/212 273/127/212
f 273/127/213 263/117/213 264/118/213
f 273/127/213 264/118/213 274/128/213
f 274/128/214 264/118/214 265/119/214
f 274/128/214 265/119/214 275/129/214
f 275/129/215 265/119/215 266/120/215
f 275/129/215 266/120/215 276/130/215
f 276/130/216 266/120/216 267/121/216
f 276/130/216 267/121/216 277/131/216
f 277/131/120 267/121/120 268/122/120
f 277/131/120 268/122/120 278/132/120
f 279/133/217 271/125/217 272/126/217
f 279/133/217 272/126/217 280/134/217
f 280/134/218 272/126/218 273/127/218
f 280/134/218 273/127/218 281/135/218
f 281/135/219 273/127/219 274/128/219
f 281/135/219 274/128/219 282/136/219
f 282/136/220 274/128/220 275/129/220
f 282/136/220 275/129/220 283/137/220
f 283/137/221 275/129/221 276/130/221
f 283/137/221 276/130/221 284/138/221
f 284/138/222 276/130/222 277/131/222
f 284/138/222 277/131/222 285/139/222
f 159/13/223 286/141/223 287/140/223
f 159/13/223 287/140/223 161/16/223
f 161/16/224 287/140/224 288/142/224
f 161/16/224 288/142/224 163/18/224
f 163/18/225 288/142/225 289/143/225
f 163/18/225 289/143/225 165/20/225
f 165/20/226 289/143/226 290/144/226
f 165/20/226 290/144/226 167/22/226
f 194/49/143 291/145/227 171/25/228
f 194/49/143 171/25/228 182/36/143
f 215/70/162 292/146/229 193/47/230
f 215/70/162 193/47/230 204/58/162
f 147/1/231 150/2/231 2/2/1
f 147/1/231 2/2/1 1/1/1
f 150/2/232 149/3/233 3/3/1
f 150/2/232 3/3/1 2/2/1
f 149/3/233 152/5/234 5/5/2
f 149/3/233 5/5/2 3/3/1
f 152/5/234 154/7/235 7/7/3
f 152/5/234 7/7/3 5/5/2
f 154/7/235 156/9/236 9/9/4
f 154/7/235 9/9/4 7/7/3
f 156/9/237 155/10/237 10/10/4
f 156/9/237 10/10/4 9/9/4
f 159/13/238 158/14/239 14/14/5
f 159/13/238 14/14/5 13/13/5
f 158/14/240 157/11/241 11/11/5
f 158/14/240 11/11/5 14/14/5
f 170/23/242 169/24/242 24/24/10
f 170/23/242 24/24/10 23/23/10
f 169/24/243 167/22/244 22/22/10
f 169/24/243 22/22/10 24/24/10
f 157/11/245 172/27/246 27/27/11
f 157/11/245 27/27/11 11/11/11
f 172/27/247 171/25/248 25/25/11
f 172/27/247 25/25/11 27/27/11
f 181/34/249 180/35/250 35/35/18
f 181/34/249 35/35/18 34/34/18
f 180/35/251 170/23/252 23/23/18
f 180/35/251 23/23/18 35/35/18
f 192/45/253 191/46/254 46/46/27
f 192/45/253 46/46/27 45/45/27
f 191/46/255 181/34/256 34/34/27
f 191/46/255 34/34/27 46/46/27
f 194/49/257 193/47/258 47/47/28
f 194/49/257 47/47/28 49/49/28
f 155/10/259 192/45/253 45/45/27
f 155/10/259 45/45/27 10/10/37
f 215/70/260 214/68/261 68/68/47
f 215/70/260 68/68/47 70/70/47
f 214/68/261 226/80/262 80/80/47
f 214/68/261 80/80/47 68/68/47
f 237/91/263 238/92/264 92/92/67
f 237/91/263 92/92/67 91/91/67
f 226/80/262 237/91/265 91/91/67
f 226/80/262 91/91/67 80/80/47
f 238/92/266 248/102/267 102/102/78
f 238/92/266 102/102/78 92/92/78
f 258/112/268 147/1/269 1/1/85
f 258/112/268 1/1/85 112/112/85
f 259/113/270 260/114/271 114/114/86
f 259/113/270 114/114/86 113/113/86
f 248/102/267 259/113/272 113/113/86
f 248/102/267 113/113/86 102/102/78
f 268/122/273 269/123/274 123/123/94
f 268/122/273 123/123/94 122/122/94
f 269/123/275 258/112/268 112/112/85
f 269/123/275 112/112/85 123/123/94
f 270/124/276 271/125/277 125/125/95
f 270/124/276 125/125/95 124/124/95
f 260/114/278 270/124/279 124/124/95
f 260/114/278 124/124/95 114/114/95
f 277/131/280 278/132/281 132/132/5
f 277/131/280 132/132/5 131/131/5
f 278/132/282 268/122/283 122/122/5
f 278/132/282 122/122/5 132/132/5
f 279/133/284 280/134/285 134/134/102
f 279/133/284 134/134/102 133/133/102
f 271/125/286 279/133/286 133/133/102
f 271/125/286 133/133/102 125/125/102
f 280/134/285 281/135/287 135/135/103
f 280/134/285 135/135/103 134/134/102
f 281/135/287 282/136/288 136/136/104
f 281/135/287 136/136/104 135/135/103
f 282/136/288 283/137/289 137/137/105
f 282/136/288 137/137/105 136/136/104
f 283/137/289 284/138/290 138/138/106
f 283/137/289 138/138/106 137/137/105
f 284/138/290 285/139/291 139/139/107
f 284/138/290 139/139/107 138/138/106
f 285/139/292 277/131/293 131/131/107
f 285/139/292 131/131/107 139/139/107
f 287/140/294 286/141/295 141/141/108
f 287/140/294 141/141/108 140/140/108
f 286/141/296 159/13/296 13/13/108
f 286/141/296 13/13/108 141/141/108
f 288/142/297 287/140/294 140/140/108
f 288/142/297 140/140/108 142/142/109
f 289/143/298 288/142/297 142/142/109
f 289/143/298 142/142/109 143/143/110
f 167/22/299 290/144/300 144/144/111
f 167/22/299 144/144/111 22/22/111
f 290/144/301 289/143/298 143/143/110
f 290/144/301 143/143/110 144/144/111
f 171/25/302 291/145/303 145/145/304
f 171/25/302 145/145/304 25/25/305
f 291/145/306 194/49/257 49/49/28
f 291/145/306 49/49/28 145/145/307
f 193/47/308 292/146/309 146/146/310
f 193/47/308 146/146/310 47/47/311
f 292/146/312 215/70/260 70/70/47
f 292/146/312 70/70/47 146/146/313
# Vertices: 292, normals: 313, texture coordinates: 146, faces: 580

