# File generated by ImageToStl.com - Free Image and 3D model conversion tools

mtllib horse.mtl

o obj1
v -5.00000001 -5.85601939 -12.01906586
v -5.00000001 4.14398061 -12.01906423
v 4.99999999 4.14398061 -12.01906423
v 4.99999999 -5.85601939 -12.01906586
v -5.00000001 -5.85602297 9.98093414
v 4.99999999 -5.85602297 9.98093414
v 4.99999999 4.14397703 9.98093577
v -5.00000001 4.14397703 9.98093577
v -5.00000001 -5.85601939 -12.01906586
v 4.99999999 -5.85601939 -12.01906586
v 4.99999999 -5.85602297 9.98093414
v -5.00000001 -5.85602297 9.98093414
v 4.99999999 4.14398061 -12.01906423
v -5.00000001 4.14398061 -12.01906423
v -5.00000001 4.14398061 -12.01906423
v -5.00000001 -5.85601939 -12.01906586
v -2.00000025 -1.27013616 2.11798743
v -2.00000025 9.60555776 7.18940796
v 1.99999987 9.60555776 7.18940796
v 1.99999987 -1.27013616 2.11798743
v -2.00000025 -4.22846449 8.4621413
v 1.99999987 -4.22846449 8.4621413
v 1.99999987 6.64722896 13.53356184
v -2.00000025 6.64722896 13.53356184
v -2.00000025 -1.27013616 2.11798743
v 1.99999987 -1.27013616 2.11798743
v 1.99999987 -4.22846449 8.4621413
v -2.00000025 -4.22846449 8.4621413
v 1.99999987 6.64722896 13.53356184
v 1.99999987 -4.22846449 8.4621413
v 1.99999987 9.60555776 7.18940796
v -2.00000025 9.60555776 7.18940796
v -2.00000025 9.60555776 7.18940796
v -2.00000025 -1.27013616 2.11798743
v -2.00000025 -4.22846449 8.4621413
v -2.00000025 6.64722896 13.53356184
v -3.00000025 9.60555776 7.18940796
v -3.00000025 14.13709733 9.30249921
v 2.99999975 14.13709733 9.30249921
v 2.99999975 9.60555776 7.18940796
v -3.00000025 6.64722991 13.53356184
v 2.99999975 6.64722991 13.53356184
v 2.99999975 11.17876805 15.646655
v -3.00000025 11.17876805 15.646655
v -3.00000025 9.60555776 7.18940796
v 2.99999975 9.60555776 7.18940796
v 2.99999975 6.64722991 13.53356184
v -3.00000025 6.64722991 13.53356184
v 2.99999975 11.17876805 15.646655
v 2.99999975 6.64722991 13.53356184
v 2.99999975 14.13709733 9.30249921
v -3.00000025 14.13709733 9.30249921
v -3.00000025 14.13709733 9.30249921
v -3.00000025 9.60555776 7.18940796
v -3.00000025 6.64722991 13.53356184
v -3.00000025 11.17876805 15.646655
v -0.50000025 14.13709638 9.30249921
v -2.50000025 14.13709638 9.30249921
v -2.50000025 16.8560207 10.57035244
v -0.50000025 16.8560207 10.57035244
v -0.50000025 13.71447832 10.20880636
v -0.50000025 16.43340168 11.4766615
v -2.50000025 16.43340168 11.4766615
v -2.50000025 13.71447832 10.20880636
v -0.50000025 14.13709638 9.30249921
v -0.50000025 13.71447832 10.20880636
v -2.50000025 13.71447832 10.20880636
v -2.50000025 14.13709638 9.30249921
v -2.50000025 16.8560207 10.57035244
v -0.50000025 16.8560207 10.57035244
v -0.50000025 16.8560207 10.57035244
v -0.50000025 14.13709638 9.30249921
v 0.49999975 14.13709638 9.30249921
v 0.49999975 16.8560207 10.57035244
v 2.49999975 16.8560207 10.57035244
v 2.49999975 14.13709638 9.30249921
v 0.49999975 13.71447832 10.20880636
v 2.49999975 13.71447832 10.20880636
v 2.49999975 16.43340168 11.4766615
v 0.49999975 16.43340168 11.4766615
v 0.49999975 14.13709638 9.30249921
v 2.49999975 14.13709638 9.30249921
v 2.49999975 13.71447832 10.20880636
v 0.49999975 13.71447832 10.20880636
v 2.49999975 16.8560207 10.57035244
v 0.49999975 16.8560207 10.57035244
v 0.49999975 16.8560207 10.57035244
v 0.49999975 14.13709638 9.30249921
v -1.00000049 0.93456307 0.93929974
v -1.00000049 15.43548703 7.70119251
v 0.99999951 15.43548703 7.70119251
v 0.99999951 0.93456307 0.93929974
v -1.00000049 0.08932599 2.75191499
v 0.99999951 0.08932599 2.75191499
v 0.99999951 14.59025091 9.51380872
v -1.00000049 14.59025091 9.51380872
v -1.00000049 0.93456307 0.93929974
v 0.99999951 0.93456307 0.93929974
v 0.99999951 0.08932599 2.75191499
v -1.00000049 0.08932599 2.75191499
v 0.99999951 15.43548703 7.70119251
v -1.00000049 15.43548703 7.70119251
v -1.00000049 15.43548703 7.70119251
v -1.00000049 0.93456307 0.93929974
v -2.00000025 5.74092276 13.11094282
v -2.00000025 10.2724609 15.22403408
v 1.99999987 10.2724609 15.22403408
v 1.99999987 5.74092276 13.11094282
v -2.00000025 3.62783103 17.64248049
v 1.99999987 3.62783103 17.64248049
v 1.99999987 8.15936965 19.75557174
v -2.00000025 8.15936965 19.75557174
v -2.00000025 5.74092276 13.11094282
v 1.99999987 5.74092276 13.11094282
v 1.99999987 3.62783103 17.64248049
v -2.00000025 3.62783103 17.64248049
v 1.99999987 5.74092276 13.11094282
v 1.99999987 10.2724609 15.22403408
v 1.99999987 10.2724609 15.22403408
v -2.00000025 10.2724609 15.22403408
v -2.00000025 10.2724609 15.22403408
v -2.00000025 5.74092276 13.11094282
v -1.00000001 -16.85602232 5.98093426
v -5.00000001 -16.85602232 5.98093426
v -5.00000001 -5.85602232 5.98093605
v -1.00000001 -5.85602232 5.98093605
v -1.00000001 -16.85602297 9.98093426
v -1.00000001 -5.85602297 9.98093605
v -5.00000001 -5.85602297 9.98093605
v -5.00000001 -16.85602297 9.98093426
v -1.00000001 -16.85602232 5.98093426
v -1.00000001 -16.85602297 9.98093426
v -5.00000001 -16.85602297 9.98093426
v -5.00000001 -16.85602232 5.98093426
v -5.00000001 -5.85602232 5.98093605
v -1.00000001 -5.85602232 5.98093605
v -1.00000001 -5.85602232 5.98093605
v -1.00000001 -16.85602232 5.98093426
v 0.99999999 -16.85602232 5.98093426
v 0.99999999 -5.85602232 5.98093605
v 4.99999999 -5.85602232 5.98093605
v 4.99999999 -16.85602232 5.98093426
v 0.99999999 -16.85602297 9.98093426
v 4.99999999 -16.85602297 9.98093426
v 4.99999999 -5.85602297 9.98093605
v 0.99999999 -5.85602297 9.98093605
v 0.99999999 -16.85602232 5.98093426
v 4.99999999 -16.85602232 5.98093426
v 4.99999999 -16.85602297 9.98093426
v 0.99999999 -16.85602297 9.98093426
v 4.99999999 -5.85602232 5.98093605
v 0.99999999 -5.85602232 5.98093605
v 0.99999999 -5.85602232 5.98093605
v 0.99999999 -16.85602232 5.98093426
v -0.9999993 -16.85602146 -11.01906574
v -4.99999906 -16.85602146 -11.01906574
v -4.99999906 -5.85602146 -11.01906395
v -0.9999993 -5.85602146 -11.01906395
v -0.9999993 -16.85602211 -7.01906574
v -0.9999993 -5.85602211 -7.01906395
v -4.99999906 -5.85602211 -7.01906395
v -4.99999906 -16.85602211 -7.01906574
v -0.9999993 -16.85602146 -11.01906574
v -0.9999993 -16.85602211 -7.01906574
v -4.99999906 -16.85602211 -7.01906574
v -4.99999906 -16.85602146 -11.01906574
v -4.99999906 -5.85602146 -11.01906395
v -0.9999993 -5.85602146 -11.01906395
v -0.9999993 -5.85602146 -11.01906395
v -0.9999993 -16.85602146 -11.01906574
v 1.0000007 -16.85602146 -11.01906574
v 1.0000007 -5.85602146 -11.01906395
v 5.00000094 -5.85602146 -11.01906395
v 5.00000094 -16.85602146 -11.01906574
v 1.0000007 -16.85602211 -7.01906574
v 5.00000094 -16.85602211 -7.01906574
v 5.00000094 -5.85602211 -7.01906395
v 1.0000007 -5.85602211 -7.01906395
v 1.0000007 -16.85602146 -11.01906574
v 5.00000094 -16.85602146 -11.01906574
v 5.00000094 -16.85602211 -7.01906574
v 1.0000007 -16.85602211 -7.01906574
v 5.00000094 -5.85602146 -11.01906395
v 1.0000007 -5.85602146 -11.01906395
v 1.0000007 -5.85602146 -11.01906395
v 1.0000007 -16.85602146 -11.01906574
v -1.50000001 -9.22053343 -19.75556905
v -1.50000001 2.90382122 -12.75556875
v 1.49999999 2.90382122 -12.75556875
v 1.49999999 -9.22053343 -19.75556905
v -1.50000001 -11.220534 -16.29146759
v 1.49999999 -11.220534 -16.29146759
v 1.49999999 0.90382113 -9.29146752
v -1.50000001 0.90382113 -9.29146752
v -1.50000001 -9.22053343 -19.75556905
v 1.49999999 -9.22053343 -19.75556905
v 1.49999999 -11.220534 -16.29146759
v -1.50000001 -11.220534 -16.29146759
v 1.49999999 2.90382122 -12.75556875
v -1.50000001 2.90382122 -12.75556875
v -1.50000001 2.90382122 -12.75556875
v -1.50000001 -9.22053343 -19.75556905
v -1.50000001 -11.220534 -16.29146759
vn 0 0 -1
vn 0 0 1
vn 0 -1 0
vn 1 0 0
vn 0 1 0
vn -1 0 0
vn 0 0.42262 -0.90631
vn 0 -0.42262 0.90631
vn 0 -0.90631 -0.42262
vn 0 0.90631 0.42262
vn 0 0.42262 -0.90631
vn 0 -0.42262 0.90631
vn 0 -0.90631 -0.42262
vn 0 0.90631 0.42262
vn 0 0.42262 -0.90631
vn 0 -0.90631 -0.42262
vn 0 0.42262 -0.90631
vn 0 -0.42262 0.90631
vn 0 -0.90631 -0.42262
vn 0 0.90631 0.42262
vn 0 -0.42262 0.90631
vn 0 -0.90631 -0.42262
vn 0 0.5 -0.86603
vn 0 -0.5 0.86603
vn 0 -0.86603 -0.5
vn 0 0.86603 0.5
vt 1 1
vt 1 0.84369
vt 0.85 0.84369
vt 0.85 1
vt 0.34376 1
vt 0.5 1
vt 0.5 0.84369
vt 0.34376 0.84369
vt 0.5 0.5
vt 0.65639 0.5
vt 0.65639 0.84369
vt 0.34376 0.5
vt 0 0.84369
vt 0 1
vt 0.34389 0.84342
vt 0.34389 0.65633
vt 0.28139 0.65633
vt 0.28139 0.84342
vt 0.10948 0.84342
vt 0.17195 0.84342
vt 0.17195 0.65633
vt 0.10948 0.65633
vt 0.17195 0.5468
vt 0.2341 0.5468
vt 0.2341 0.65633
vt 0.17195 0.65633
vt 0.17195 0.84342
vt 0.10948 0.5468
vt 0 0.65633
vt 0 0.84342
vt 0.10948 0.84342
vt 0.10948 0.65633
vt 0.40618 0.3875
vt 0.40618 0.3125
vt 0.3125 0.3125
vt 0.3125 0.3875
vt 0.10929 0.3875
vt 0.20303 0.3875
vt 0.20303 0.3125
vt 0.10929 0.3125
vt 0.20303 0.20312
vt 0.29689 0.20312
vt 0.29687 0.3125
vt 0.20303 0.3125
vt 0.20303 0.3875
vt 0.10929 0.20312
vt 0 0.3125
vt 0 0.3875
vt 0.10929 0.3875
vt 0.10929 0.3125
vt 0.39064 0.3125
vt 0.3594 0.3125
vt 0.3594 0.26564
vt 0.39064 0.26564
vt 0.3125 0.26564
vt 0.34378 0.26564
vt 0.34378 0.3125
vt 0.34378 0.25
vt 0.375 0.26564
vt 0.375 0.25
vt 0.3125 0.25
vt 0.29694 0.26564
vt 0.29694 0.3125
vt 1 0.84376
vt 1 0.59381
vt 0.96873 0.59381
vt 0.96873 0.84376
vt 0.90637 0.84376
vt 0.9375 0.84376
vt 0.9375 0.59381
vt 0.90637 0.59381
vt 0.9375 0.5625
vt 0.96873 0.5625
vt 0.90637 0.5625
vt 0.87502 0.59381
vt 0.87502 0.84376
vt 0.28043 0.54688
vt 0.28043 0.46876
vt 0.21873 0.46876
vt 0.21873 0.54688
vt 0.07819 0.54688
vt 0.14044 0.54688
vt 0.14044 0.46876
vt 0.07819 0.46876
vt 0.14044 0.39091
vt 0.20309 0.39091
vt 0.20309 0.46876
vt 0.21873 0.54688
vt 0.21873 0.46876
vt 0.07819 0.39091
vt 0 0.46876
vt 0 0.54688
vt 1 0.5625
vt 0.9375 0.39053
vt 1 0.39053
vt 0.8125 0.5625
vt 0.8125 0.39053
vt 0.875 0.39053
vt 0.875 0.5625
vt 0.875 0.32816
vt 0.9375 0.32816
vt 0.8125 0.32816
vt 0.75 0.39053
vt 0.75 0.5625
vt 0.875 0.84373
vt 0.875 0.625
vt 0.8375 0.625
vt 0.8375 0.84373
vt 0.71888 0.84373
vt 0.76546 0.84373
vt 0.76546 0.625
vt 0.71888 0.625
vt 0.76546 0.5625
vt 0.8 0.5625
vt 0.8 0.625
vt 0.71888 0.5625
vt 0.65 0.625
vt 0.65 0.84373
vt 0.71888 0.84373
usemtl mat0
f 1/1/1 2/2/1 3/3/1
f 1/1/1 3/3/1 4/4/1
f 5/5/2 6/6/2 7/7/2
f 5/5/2 7/7/2 8/8/2
f 9/9/3 10/10/3 11/11/3
f 9/9/3 11/11/3 12/7/3
f 4/4/4 3/3/4 7/7/4
f 4/4/4 7/7/4 6/6/4
f 13/9/5 14/12/5 8/8/5
f 13/9/5 8/8/5 7/7/5
f 15/13/6 16/14/6 5/5/6
f 15/13/6 5/5/6 8/8/6
f 17/15/7 18/16/7 19/17/7
f 17/15/7 19/17/7 20/18/7
f 21/19/8 22/20/8 23/21/8
f 21/19/8 23/21/8 24/22/8
f 25/23/9 26/24/9 27/25/9
f 25/23/9 27/25/9 28/26/9
f 20/18/4 19/17/4 29/26/4
f 20/18/4 29/26/4 30/27/4
f 31/23/10 32/28/10 24/22/10
f 31/23/10 24/22/10 29/26/10
f 33/29/6 34/30/6 35/31/6
f 33/29/6 35/31/6 36/32/6
f 37/33/11 38/34/11 39/35/11
f 37/33/11 39/35/11 40/36/11
f 41/37/12 42/38/12 43/39/12
f 41/37/12 43/39/12 44/40/12
f 45/41/13 46/42/13 47/43/13
f 45/41/13 47/43/13 48/44/13
f 40/36/4 39/35/4 49/44/4
f 40/36/4 49/44/4 50/45/4
f 51/41/14 52/46/14 44/40/14
f 51/41/14 44/40/14 49/44/14
f 53/47/6 54/48/6 55/49/6
f 53/47/6 55/49/6 56/50/6
f 57/51/15 58/52/15 59/53/15
f 57/51/15 59/53/15 60/54/15
f 61/35/8 62/55/8 63/56/8
f 61/35/8 63/56/8 64/57/8
f 65/58/16 66/56/16 67/59/16
f 65/58/16 67/59/16 68/60/16
f 58/52/6 64/57/6 63/56/6
f 58/52/6 63/56/6 59/53/6
f 69/58/10 63/56/10 62/55/10
f 69/58/10 62/55/10 70/61/10
f 71/62/4 62/55/4 61/35/4
f 71/62/4 61/35/4 72/63/4
f 73/51/15 74/54/15 75/53/15
f 73/51/15 75/53/15 76/52/15
f 77/35/8 78/57/8 79/56/8
f 77/35/8 79/56/8 80/55/8
f 81/58/16 82/60/16 83/59/16
f 81/58/16 83/59/16 84/56/16
f 76/52/4 75/53/4 79/56/4
f 76/52/4 79/56/4 78/57/4
f 85/58/10 86/61/10 80/55/10
f 85/58/10 80/55/10 79/56/10
f 87/62/6 88/63/6 77/35/6
f 87/62/6 77/35/6 80/55/6
f 89/64/17 90/65/17 91/66/17
f 89/64/17 91/66/17 92/67/17
f 93/68/18 94/69/18 95/70/18
f 93/68/18 95/70/18 96/71/18
f 97/72/19 98/73/19 99/66/19
f 97/72/19 99/66/19 100/70/19
f 92/67/4 91/66/4 95/70/4
f 92/67/4 95/70/4 94/69/4
f 101/72/20 102/74/20 96/71/20
f 101/72/20 96/71/20 95/70/20
f 103/75/6 104/76/6 93/68/6
f 103/75/6 93/68/6 96/71/6
f 105/77/7 106/78/7 107/79/7
f 105/77/7 107/79/7 108/80/7
f 109/81/21 110/82/21 111/83/21
f 109/81/21 111/83/21 112/84/21
f 113/85/22 114/86/22 115/87/22
f 113/85/22 115/87/22 116/83/22
f 117/88/4 118/89/4 111/83/4
f 117/88/4 111/83/4 110/82/4
f 119/85/14 120/90/14 112/84/14
f 119/85/14 112/84/14 111/83/14
f 121/91/6 122/92/6 109/81/6
f 121/91/6 109/81/6 112/84/6
f 123/93/1 124/72/1 125/94/1
f 123/93/1 125/94/1 126/95/1
f 127/96/2 128/97/2 129/98/2
f 127/96/2 129/98/2 130/99/2
f 131/100/3 132/98/3 133/94/3
f 131/100/3 133/94/3 134/101/3
f 124/72/6 130/99/6 129/98/6
f 124/72/6 129/98/6 125/94/6
f 135/100/5 129/98/5 128/97/5
f 135/100/5 128/97/5 136/102/5
f 137/103/4 128/97/4 127/96/4
f 137/103/4 127/96/4 138/104/4
f 139/93/1 140/95/1 141/94/1
f 139/93/1 141/94/1 142/72/1
f 143/96/2 144/99/2 145/98/2
f 143/96/2 145/98/2 146/97/2
f 147/100/3 148/101/3 149/94/3
f 147/100/3 149/94/3 150/98/3
f 142/72/4 141/94/4 145/98/4
f 142/72/4 145/98/4 144/99/4
f 151/100/5 152/102/5 146/97/5
f 151/100/5 146/97/5 145/98/5
f 153/103/6 154/104/6 143/96/6
f 153/103/6 143/96/6 146/97/6
f 155/93/1 156/72/1 157/94/1
f 155/93/1 157/94/1 158/95/1
f 159/96/2 160/97/2 161/98/2
f 159/96/2 161/98/2 162/99/2
f 163/100/3 164/98/3 165/94/3
f 163/100/3 165/94/3 166/101/3
f 156/72/6 162/99/6 161/98/6
f 156/72/6 161/98/6 157/94/6
f 167/100/5 161/98/5 160/97/5
f 167/100/5 160/97/5 168/102/5
f 169/103/4 160/97/4 159/96/4
f 169/103/4 159/96/4 170/104/4
f 171/93/1 172/95/1 173/94/1
f 171/93/1 173/94/1 174/72/1
f 175/96/2 176/99/2 177/98/2
f 175/96/2 177/98/2 178/97/2
f 179/100/3 180/101/3 181/94/3
f 179/100/3 181/94/3 182/98/3
f 174/72/4 173/94/4 177/98/4
f 174/72/4 177/98/4 176/99/4
f 183/100/5 184/102/5 178/97/5
f 183/100/5 178/97/5 177/98/5
f 185/103/6 186/104/6 175/96/6
f 185/103/6 175/96/6 178/97/6
f 187/105/23 188/106/23 189/107/23
f 187/105/23 189/107/23 190/108/23
f 191/109/24 192/110/24 193/111/24
f 191/109/24 193/111/24 194/112/24
f 195/113/25 196/114/25 197/115/25
f 195/113/25 197/115/25 198/111/25
f 190/108/4 189/107/4 193/111/4
f 190/108/4 193/111/4 192/110/4
f 199/113/26 200/116/26 194/112/26
f 199/113/26 194/112/26 193/111/26
f 201/117/6 202/118/6 203/119/6
f 201/117/6 203/119/6 194/112/6
# Vertices: 203, normals: 26, texture coordinates: 119, faces: 144

